<svg width="39" height="24" viewBox="0 0 39 24" fill="none" xmlns="http://www.w3.org/2000/svg">
<g clip-path="url(#clip0_1_2)">
<path d="M15.386 15.571C14.829 15.012 14.487 14.251 14.487 13.401V6.204H15.712V4.126H12.409V5.208C11.542 4.543 10.458 4.147 9.28 4.147H5.172C2.33 4.148 0.027001 6.45 0.026001 9.293V13.401C0.027001 16.243 2.33 18.546 5.172 18.547H9.28C10.977 18.547 12.481 17.726 13.418 16.461C14.355 17.726 15.859 18.547 17.555 18.547V16.469C16.705 16.469 15.944 16.128 15.386 15.571ZM12.349 13.401C12.349 14.251 12.007 15.012 11.45 15.571C10.892 16.128 10.131 16.469 9.28 16.469H5.172C4.322 16.469 3.561 16.128 3.003 15.571C2.446 15.012 2.104 14.251 2.104 13.401V9.293C2.104 8.443 2.446 7.682 3.003 7.123C3.561 6.566 4.322 6.225 5.172 6.225H9.28C10.131 6.225 10.892 6.566 11.45 7.123C12.007 7.682 12.349 8.443 12.349 9.293V13.401Z" fill="white"/>
<path d="M19.869 10.683V8.286H18.563V10.683H16.253V11.968H18.563V14.388H19.869V11.968H22.179V10.683H19.869Z" fill="#1E7AB9"/>
<path d="M33.269 8.219H29.161C27.984 8.22 26.899 8.616 26.033 9.281V0.0540009H22.73V2.131H23.955V17.473C23.954 18.324 23.613 19.085 23.056 19.643C22.497 20.2 21.737 20.541 20.886 20.541V22.619C22.583 22.619 24.086 21.798 25.024 20.533C25.962 21.798 27.465 22.619 29.161 22.619H33.269C33.684 22.619 34.088 22.569 34.474 22.476C36.735 21.933 38.415 19.901 38.416 17.473V13.366C38.415 10.523 36.112 8.22 33.269 8.219ZM36.338 17.473C36.337 18.324 35.996 19.085 35.439 19.643C35.163 19.919 34.836 20.141 34.474 20.296C34.105 20.454 33.698 20.541 33.269 20.541H29.161C28.311 20.541 27.55 20.2 26.991 19.643C26.435 19.085 26.093 18.324 26.093 17.473V13.366C26.093 12.515 26.435 11.754 26.991 11.195C27.55 10.639 28.311 10.297 29.161 10.297H33.269C34.12 10.297 34.88 10.639 35.439 11.195C35.996 11.754 36.337 12.515 36.338 13.366V17.473Z" fill="white"/>
<path d="M0.437991 21.811C0.293991 21.712 0.257991 21.659 0.257991 21.563C0.257991 21.467 0.320991 21.377 0.443991 21.377C0.521991 21.377 0.580991 21.404 0.637991 21.443L0.697991 21.27C0.637991 21.233 0.553991 21.194 0.440991 21.194C0.215991 21.194 0.0429912 21.359 0.0429912 21.596C0.0429912 21.76 0.143991 21.886 0.332991 22.006C0.479991 22.104 0.518991 22.179 0.518991 22.29C0.518991 22.418 0.434991 22.499 0.305991 22.499C0.212991 22.499 0.123991 22.457 0.0729912 22.424L0.0159912 22.598C0.0789912 22.648 0.194991 22.681 0.299991 22.681C0.538991 22.681 0.736991 22.541 0.736991 22.25C0.736991 22.05 0.604991 21.918 0.437991 21.811Z" fill="white"/>
<path d="M1.43099 21.216H1.20099V22.664H1.43099V21.216Z" fill="white"/>
<path d="M1.311 20.692C1.236 20.692 1.177 20.752 1.177 20.842C1.177 20.931 1.233 20.992 1.308 20.992C1.395 20.992 1.449 20.931 1.449 20.842C1.449 20.752 1.395 20.692 1.311 20.692Z" fill="white"/>
<path d="M3.15999 21.195C3.08499 21.195 3.01699 21.213 2.95999 21.251C2.90599 21.284 2.85499 21.344 2.81599 21.416H2.80999C2.75599 21.258 2.64299 21.195 2.50799 21.195C2.35499 21.195 2.24499 21.278 2.18199 21.395H2.17599L2.16399 21.216H1.96399C1.96699 21.332 1.97599 21.419 1.97599 21.59V22.663H2.20299V21.745C2.20299 21.7 2.20599 21.659 2.21199 21.622C2.23899 21.467 2.33199 21.386 2.42699 21.386C2.60099 21.386 2.62799 21.557 2.62799 21.715V22.663H2.85499V21.733C2.85499 21.685 2.85799 21.64 2.86399 21.605C2.89699 21.467 2.98099 21.386 3.07599 21.386C3.25299 21.386 3.27999 21.568 3.27999 21.757V22.663H3.50699V21.706C3.50699 21.335 3.35499 21.195 3.15999 21.195Z" fill="white"/>
<path d="M4.56898 21.195C4.45598 21.195 4.34198 21.248 4.26098 21.401H4.25498L4.24298 21.216H4.03998C4.04298 21.317 4.05198 21.446 4.05198 21.667V23.238H4.27898V22.52H4.28498C4.32398 22.601 4.40198 22.687 4.53998 22.687C4.76698 22.687 4.98798 22.475 4.98798 21.937C4.98798 21.461 4.82398 21.195 4.56898 21.195ZM4.50398 22.496C4.44098 22.496 4.33598 22.46 4.29098 22.253C4.28198 22.218 4.27898 22.176 4.27898 22.134V21.763C4.27898 21.724 4.28198 21.685 4.28798 21.652C4.29998 21.521 4.39598 21.392 4.50098 21.392C4.68598 21.392 4.75798 21.643 4.75798 21.942C4.75798 22.233 4.69498 22.496 4.50398 22.496Z" fill="white"/>
<path d="M5.70399 20.593H5.47299V22.663H5.70399V20.593Z" fill="white"/>
<path d="M6.694 21.195C6.403 21.195 6.203 21.488 6.203 21.955C6.203 22.397 6.382 22.682 6.729 22.682C6.846 22.682 6.969 22.654 7.05 22.613L7.011 22.445C6.954 22.475 6.873 22.499 6.771 22.499C6.607 22.499 6.43 22.406 6.43 21.96H7.1C7.103 21.925 7.106 21.886 7.106 21.829C7.106 21.506 6.987 21.195 6.694 21.195ZM6.434 21.79C6.442 21.593 6.517 21.374 6.67 21.374C6.78 21.374 6.888 21.503 6.885 21.79H6.434Z" fill="white"/>
<path d="M8.76399 21.195C8.68899 21.195 8.61999 21.213 8.56399 21.251C8.50899 21.284 8.45799 21.344 8.41999 21.416H8.41399C8.35999 21.258 8.24599 21.195 8.11199 21.195C7.95899 21.195 7.84799 21.278 7.78599 21.395H7.77999L7.76799 21.216H7.56699C7.56999 21.332 7.57899 21.419 7.57899 21.59V22.663H7.80699V21.745C7.80699 21.7 7.80999 21.659 7.81599 21.622C7.84199 21.467 7.93499 21.386 8.03099 21.386C8.20399 21.386 8.23099 21.557 8.23099 21.715V22.663H8.45799V21.733C8.45799 21.685 8.46199 21.64 8.46799 21.605C8.50099 21.467 8.58399 21.386 8.67999 21.386C8.85699 21.386 8.88299 21.568 8.88299 21.757V22.663H9.11099V21.706C9.11099 21.335 8.95799 21.195 8.76399 21.195Z" fill="white"/>
<path d="M10.083 21.195C9.79299 21.195 9.59299 21.488 9.59299 21.955C9.59299 22.397 9.77199 22.682 10.119 22.682C10.236 22.682 10.358 22.654 10.439 22.613L10.4 22.445C10.343 22.475 10.263 22.499 10.161 22.499C9.99599 22.499 9.81999 22.406 9.81999 21.96H10.49C10.493 21.925 10.496 21.886 10.496 21.829C10.496 21.506 10.377 21.195 10.083 21.195ZM9.82299 21.79C9.83199 21.593 9.90699 21.374 10.059 21.374C10.17 21.374 10.278 21.503 10.275 21.79H9.82299Z" fill="white"/>
<path d="M11.507 21.195C11.355 21.195 11.238 21.276 11.175 21.392H11.169L11.157 21.216H10.957C10.96 21.332 10.969 21.419 10.969 21.59V22.663H11.199V21.754C11.199 21.703 11.202 21.659 11.211 21.622C11.238 21.47 11.331 21.389 11.426 21.389C11.594 21.389 11.627 21.56 11.627 21.733V22.663H11.857V21.691C11.857 21.341 11.708 21.195 11.507 21.195Z" fill="white"/>
<path d="M12.668 20.878L12.438 20.97V21.216H12.261V21.389H12.438V22.23C12.438 22.43 12.465 22.529 12.524 22.595C12.579 22.658 12.659 22.681 12.752 22.681C12.827 22.681 12.881 22.673 12.923 22.658L12.911 22.481C12.887 22.487 12.857 22.49 12.818 22.49C12.734 22.49 12.668 22.439 12.668 22.251V21.389H12.946V21.216H12.668V20.878Z" fill="white"/>
<path d="M15.22 21.201H14.828V22.134C14.828 22.185 14.819 22.23 14.804 22.26C14.787 22.308 14.745 22.358 14.676 22.358C14.568 22.358 14.529 22.236 14.529 22.044V21.201H14.137V22.086C14.137 22.481 14.248 22.687 14.526 22.687C14.679 22.687 14.798 22.607 14.867 22.508H14.873L14.894 22.663H15.232C15.226 22.526 15.22 22.373 15.22 22.218V21.201Z" fill="#1E7AB9"/>
<path d="M16.187 20.821L15.795 20.943V21.201H15.621V21.479H15.795V22.17C15.795 22.4 15.84 22.511 15.918 22.589C15.989 22.655 16.088 22.681 16.202 22.681C16.303 22.681 16.387 22.669 16.441 22.655L16.438 22.349C16.402 22.355 16.372 22.358 16.333 22.358C16.259 22.358 16.187 22.316 16.187 22.146V21.479H16.474V21.201H16.187V20.821Z" fill="#1E7AB9"/>
<path d="M17.273 21.201H16.881V22.664H17.273V21.201Z" fill="#1E7AB9"/>
<path d="M17.072 20.599C16.965 20.599 16.869 20.683 16.872 20.815C16.869 20.94 16.959 21.027 17.066 21.027C17.186 21.027 17.275 20.94 17.273 20.815C17.273 20.683 17.186 20.599 17.072 20.599Z" fill="#0B72B0"/>
<path d="M18.164 20.593H17.772V22.663H18.164V20.593Z" fill="#1E7AB9"/>
<path d="M19.702 21.868C19.702 21.422 19.519 21.174 19.205 21.174C18.876 21.174 18.619 21.467 18.619 21.96C18.619 22.418 18.837 22.681 19.238 22.681C19.385 22.681 19.537 22.654 19.636 22.615L19.585 22.334C19.513 22.358 19.418 22.382 19.307 22.382C19.136 22.382 19.002 22.299 18.999 22.071H19.69C19.696 22.029 19.702 21.972 19.702 21.868ZM18.999 21.796C19.002 21.649 19.056 21.461 19.181 21.461C19.298 21.461 19.346 21.608 19.346 21.796H18.999Z" fill="#1E7AB9"/>
</g>
<defs>
<clipPath id="clip0_1_2">
<rect width="39" height="24" fill="white"/>
</clipPath>
</defs>
</svg>