<?xml version="1.0" encoding="UTF-8" standalone="no"?>
<svg xmlns="http://www.w3.org/2000/svg" xmlns:xlink="http://www.w3.org/1999/xlink" xmlns:serif="http://www.serif.com/" width="100%" height="100%" viewBox="0 0 39 24" version="1.1" xml:space="preserve" style="fill-rule:evenodd;clip-rule:evenodd;stroke-linejoin:round;stroke-miterlimit:2;"><g><path d="M15.386,15.571c-0.557,-0.559 -0.899,-1.32 -0.899,-2.17l0,-7.197l1.225,0l0,-2.078l-3.303,0l0,1.082c-0.867,-0.665 -1.951,-1.061 -3.129,-1.061l-4.108,0c-2.842,0.001 -5.145,2.303 -5.146,5.146l0,4.108c0.001,2.842 2.304,5.145 5.146,5.146l4.108,0c1.697,0 3.201,-0.821 4.138,-2.086c0.937,1.265 2.441,2.086 4.137,2.086l0,-2.078c-0.85,0 -1.611,-0.341 -2.169,-0.898m-3.037,-2.17c0,0.85 -0.342,1.611 -0.899,2.17c-0.558,0.557 -1.319,0.898 -2.17,0.898l-4.108,0c-0.85,0 -1.611,-0.341 -2.169,-0.898c-0.557,-0.559 -0.899,-1.32 -0.899,-2.17l0,-4.108c0,-0.85 0.342,-1.611 0.899,-2.17c0.558,-0.557 1.319,-0.898 2.169,-0.898l4.108,0c0.851,0 1.612,0.341 2.17,0.898c0.557,0.559 0.899,1.32 0.899,2.17l0,4.108Z" style="fill:#0f0014;fill-rule:nonzero;"/><path d="M19.869,10.683l0,-2.397l-1.306,0l0,2.397l-2.31,0l0,1.285l2.31,0l0,2.42l1.306,0l0,-2.42l2.31,0l0,-1.285l-2.31,0Z" style="fill:#0b72b0;fill-rule:nonzero;"/><path d="M33.269,8.219l-4.108,0c-1.177,0.001 -2.262,0.397 -3.128,1.062l0,-9.227l-3.303,0l0,2.077l1.225,0l0,15.342c-0.001,0.851 -0.342,1.612 -0.899,2.17c-0.559,0.557 -1.319,0.898 -2.17,0.898l0,2.078c1.697,0 3.2,-0.821 4.138,-2.086c0.938,1.265 2.441,2.086 4.137,2.086l4.108,0c0.415,0 0.819,-0.05 1.205,-0.143c2.261,-0.543 3.941,-2.575 3.942,-5.003l0,-4.107c-0.001,-2.843 -2.304,-5.146 -5.147,-5.147m3.069,9.254c-0.001,0.851 -0.342,1.612 -0.899,2.17c-0.276,0.276 -0.603,0.498 -0.965,0.653c-0.369,0.158 -0.776,0.245 -1.205,0.245l-4.108,0c-0.85,0 -1.611,-0.341 -2.17,-0.898c-0.556,-0.558 -0.898,-1.319 -0.898,-2.17l0,-4.107c0,-0.851 0.342,-1.612 0.898,-2.171c0.559,-0.556 1.32,-0.898 2.17,-0.898l4.108,0c0.851,0 1.611,0.342 2.17,0.898c0.557,0.559 0.898,1.32 0.899,2.171l0,4.107Z" style="fill:#0f0014;fill-rule:nonzero;"/><path d="M0.438,21.811c-0.144,-0.099 -0.18,-0.152 -0.18,-0.248c0,-0.096 0.063,-0.186 0.186,-0.186c0.078,0 0.137,0.027 0.194,0.066l0.06,-0.173c-0.06,-0.037 -0.144,-0.076 -0.257,-0.076c-0.225,0 -0.398,0.165 -0.398,0.402c0,0.164 0.101,0.29 0.29,0.41c0.147,0.098 0.186,0.173 0.186,0.284c0,0.128 -0.084,0.209 -0.213,0.209c-0.093,0 -0.182,-0.042 -0.233,-0.075l-0.057,0.174c0.063,0.05 0.179,0.083 0.284,0.083c0.239,0 0.437,-0.14 0.437,-0.431c0,-0.2 -0.132,-0.332 -0.299,-0.439" style="fill:#87888a;fill-rule:nonzero;"/><rect x="1.201" y="21.216" width="0.23" height="1.448" style="fill:#87888a;"/><path d="M1.311,20.692c-0.075,0 -0.134,0.06 -0.134,0.15c0,0.089 0.056,0.15 0.131,0.15c0.087,0 0.141,-0.061 0.141,-0.15c0,-0.09 -0.054,-0.15 -0.138,-0.15" style="fill:#87888a;fill-rule:nonzero;"/><path d="M3.16,21.195c-0.075,0 -0.143,0.018 -0.2,0.056c-0.054,0.033 -0.105,0.093 -0.144,0.165l-0.006,0c-0.054,-0.158 -0.167,-0.221 -0.302,-0.221c-0.153,0 -0.263,0.083 -0.326,0.2l-0.006,0l-0.012,-0.179l-0.2,0c0.003,0.116 0.012,0.203 0.012,0.374l0,1.073l0.227,0l0,-0.918c0,-0.045 0.003,-0.086 0.009,-0.123c0.027,-0.155 0.12,-0.236 0.215,-0.236c0.174,0 0.201,0.171 0.201,0.329l0,0.948l0.227,0l0,-0.93c0,-0.048 0.003,-0.093 0.009,-0.128c0.033,-0.138 0.117,-0.219 0.212,-0.219c0.177,0 0.204,0.182 0.204,0.371l0,0.906l0.227,0l0,-0.957c0,-0.371 -0.152,-0.511 -0.347,-0.511" style="fill:#87888a;fill-rule:nonzero;"/><path d="M4.569,21.195c-0.113,0 -0.227,0.053 -0.308,0.206l-0.006,0l-0.012,-0.185l-0.203,0c0.003,0.101 0.012,0.23 0.012,0.451l0,1.571l0.227,0l0,-0.718l0.006,0c0.039,0.081 0.117,0.167 0.255,0.167c0.227,0 0.448,-0.212 0.448,-0.75c0,-0.476 -0.164,-0.742 -0.419,-0.742m-0.065,1.301c-0.063,0 -0.168,-0.036 -0.213,-0.243c-0.009,-0.035 -0.012,-0.077 -0.012,-0.119l0,-0.371c0,-0.039 0.003,-0.078 0.009,-0.111c0.012,-0.131 0.108,-0.26 0.213,-0.26c0.185,0 0.257,0.251 0.257,0.55c0,0.291 -0.063,0.554 -0.254,0.554" style="fill:#87888a;fill-rule:nonzero;"/><rect x="5.473" y="20.593" width="0.231" height="2.07" style="fill:#87888a;"/><path d="M6.694,21.195c-0.291,0 -0.491,0.293 -0.491,0.76c0,0.442 0.179,0.727 0.526,0.727c0.117,0 0.24,-0.028 0.321,-0.069l-0.039,-0.168c-0.057,0.03 -0.138,0.054 -0.24,0.054c-0.164,0 -0.341,-0.093 -0.341,-0.539l0.67,0c0.003,-0.035 0.006,-0.074 0.006,-0.131c0,-0.323 -0.119,-0.634 -0.412,-0.634m-0.26,0.595c0.008,-0.197 0.083,-0.416 0.236,-0.416c0.11,0 0.218,0.129 0.215,0.416l-0.451,0Z" style="fill:#87888a;fill-rule:nonzero;"/><path d="M8.764,21.195c-0.075,0 -0.144,0.018 -0.2,0.056c-0.055,0.033 -0.106,0.093 -0.144,0.165l-0.006,0c-0.054,-0.158 -0.168,-0.221 -0.302,-0.221c-0.153,0 -0.264,0.083 -0.326,0.2l-0.006,0l-0.012,-0.179l-0.201,0c0.003,0.116 0.012,0.203 0.012,0.374l0,1.073l0.228,0l0,-0.918c0,-0.045 0.003,-0.086 0.009,-0.123c0.026,-0.155 0.119,-0.236 0.215,-0.236c0.173,0 0.2,0.171 0.2,0.329l0,0.948l0.227,0l0,-0.93c0,-0.048 0.004,-0.093 0.01,-0.128c0.033,-0.138 0.116,-0.219 0.212,-0.219c0.177,0 0.203,0.182 0.203,0.371l0,0.906l0.228,0l0,-0.957c0,-0.371 -0.153,-0.511 -0.347,-0.511" style="fill:#87888a;fill-rule:nonzero;"/><path d="M10.083,21.195c-0.29,0 -0.49,0.293 -0.49,0.76c0,0.442 0.179,0.727 0.526,0.727c0.117,0 0.239,-0.028 0.32,-0.069l-0.039,-0.168c-0.057,0.03 -0.137,0.054 -0.239,0.054c-0.165,0 -0.341,-0.093 -0.341,-0.539l0.67,0c0.003,-0.035 0.006,-0.074 0.006,-0.131c0,-0.323 -0.119,-0.634 -0.413,-0.634m-0.26,0.595c0.009,-0.197 0.084,-0.416 0.236,-0.416c0.111,0 0.219,0.129 0.216,0.416l-0.452,0Z" style="fill:#87888a;fill-rule:nonzero;"/><path d="M11.507,21.195c-0.152,0 -0.269,0.081 -0.332,0.197l-0.006,0l-0.012,-0.176l-0.2,0c0.003,0.116 0.012,0.203 0.012,0.374l0,1.073l0.23,0l0,-0.909c0,-0.051 0.003,-0.095 0.012,-0.132c0.027,-0.152 0.12,-0.233 0.215,-0.233c0.168,0 0.201,0.171 0.201,0.344l0,0.93l0.23,0l0,-0.972c0,-0.35 -0.149,-0.496 -0.35,-0.496" style="fill:#87888a;fill-rule:nonzero;"/><path d="M12.668,20.878l-0.23,0.092l0,0.246l-0.177,0l0,0.173l0.177,0l0,0.841c0,0.2 0.027,0.299 0.086,0.365c0.055,0.063 0.135,0.086 0.228,0.086c0.075,0 0.129,-0.008 0.171,-0.023l-0.012,-0.177c-0.024,0.006 -0.054,0.009 -0.093,0.009c-0.084,0 -0.15,-0.051 -0.15,-0.239l0,-0.862l0.278,0l0,-0.173l-0.278,0l0,-0.338Z" style="fill:#87888a;fill-rule:nonzero;"/><path d="M15.22,21.201l-0.392,0l0,0.933c0,0.051 -0.009,0.096 -0.024,0.126c-0.017,0.048 -0.059,0.098 -0.128,0.098c-0.108,0 -0.147,-0.122 -0.147,-0.314l0,-0.843l-0.392,0l0,0.885c0,0.395 0.111,0.601 0.389,0.601c0.153,0 0.272,-0.08 0.341,-0.179l0.006,0l0.021,0.155l0.338,0c-0.006,-0.137 -0.012,-0.29 -0.012,-0.445l0,-1.017Z" style="fill:#0b72b0;fill-rule:nonzero;"/><path d="M16.187,20.821l-0.392,0.122l0,0.258l-0.174,0l0,0.278l0.174,0l0,0.691c0,0.23 0.045,0.341 0.123,0.419c0.071,0.066 0.17,0.092 0.284,0.092c0.101,0 0.185,-0.012 0.239,-0.026l-0.003,-0.306c-0.036,0.006 -0.066,0.009 -0.105,0.009c-0.074,0 -0.146,-0.042 -0.146,-0.212l0,-0.667l0.287,0l0,-0.278l-0.287,0l0,-0.38Z" style="fill:#0b72b0;fill-rule:nonzero;"/><rect x="16.881" y="21.201" width="0.392" height="1.463" style="fill:#0b72b0;"/><path d="M17.072,20.599c-0.107,0 -0.203,0.084 -0.2,0.216c-0.003,0.125 0.087,0.212 0.194,0.212c0.12,0 0.209,-0.087 0.207,-0.212c0,-0.132 -0.087,-0.216 -0.201,-0.216" style="fill:#0b72b0;fill-rule:nonzero;"/><rect x="17.772" y="20.593" width="0.392" height="2.07" style="fill:#0b72b0;"/><path d="M19.702,21.868c0,-0.446 -0.183,-0.694 -0.497,-0.694c-0.329,0 -0.586,0.293 -0.586,0.786c0,0.458 0.218,0.721 0.619,0.721c0.147,0 0.299,-0.027 0.398,-0.066l-0.051,-0.281c-0.072,0.024 -0.167,0.048 -0.278,0.048c-0.171,0 -0.305,-0.083 -0.308,-0.311l0.691,0c0.006,-0.042 0.012,-0.099 0.012,-0.203m-0.703,-0.072c0.003,-0.147 0.057,-0.335 0.182,-0.335c0.117,0 0.165,0.147 0.165,0.335l-0.347,0Z" style="fill:#0b72b0;fill-rule:nonzero;"/></g></svg>